<svg width="600" height="600" fill="none" xmlns="http://www.w3.org/2000/svg"><g clip-path="url(#a)"><rect width="600" height="600" rx="100" fill="#F9C23C"/><rect x="44" y="45" width="512" height="512" rx="75" fill="#000"/><path fill="#000" d="M272 546h56v56h-56zM272 0h56v56h-56zM544 272h56v56h-56zM0 272h56v56H0z"/><path d="M258.7 390c85.052 0 154-68.948 154-154s-68.948-154-154-154-154 68.948-154 154 68.948 154 154 154z" fill="#F9C23C"/><circle opacity=".53" cx="259.213" cy="236.513" r="121.66" fill="#D3883E"/><mask id="b" style="mask-type:alpha" maskUnits="userSpaceOnUse" x="137" y="114" width="244" height="245"><path d="M380.873 236.513c0 67.191-54.469 121.66-121.66 121.66s-121.66-54.469-121.66-121.66 54.469-121.66 121.66-121.66 121.66 54.469 121.66 121.66z" fill="#fff"/></mask><g mask="url(#b)"><path d="m253.901 203.047.013.665-32.974 47.872c-5.34-.244-10.696.694-15.784 2.786a34.291 34.291 0 0 0-6.308 3.367l-72.412-29.826s-1.676 27.549 5.306 48.078l51.192 21.11c2.527 11.481 10.444 21.547 22.075 26.387a37.414 37.414 0 0 0 28.598.041 37.382 37.382 0 0 0 20.265-20.166 37.394 37.394 0 0 0 2.88-15.386l47.136-33.689 1.158.021c28.236 0 51.187-23.004 51.187-51.26 0-28.255-22.909-51.175-51.187-51.234-28.223 0-51.187 22.979-51.187 51.234h.042zm-7.917 97.006c-6.123 14.73-23.018 21.661-37.703 15.546a28.795 28.795 0 0 1-14.84-14.149l16.664 6.902a21.223 21.223 0 0 0 16.25.026 21.21 21.21 0 0 0 11.506-11.469 21.24 21.24 0 0 0 .035-16.254 21.263 21.263 0 0 0-11.469-11.526l-17.266-7.133c6.646-2.525 14.2-2.61 21.267.324 7.159 2.958 12.633 8.53 15.564 15.655 2.931 7.125 2.915 14.983-.042 22.078m59.142-62.854a34.203 34.203 0 0 1-24.109-10.031 34.163 34.163 0 0 1-9.993-24.112 34.165 34.165 0 0 1 9.996-24.107 34.204 34.204 0 0 1 24.106-10.028 34.205 34.205 0 0 1 24.112 10.025 34.16 34.16 0 0 1 9.999 24.11 34.162 34.162 0 0 1-9.996 24.115 34.204 34.204 0 0 1-24.115 10.028zm-25.553-34.198a25.62 25.62 0 0 1 7.489-18.122 25.662 25.662 0 0 1 18.115-7.529c14.129 0 25.621 11.49 25.621 25.651a25.624 25.624 0 0 1-7.498 18.122 25.65 25.65 0 0 1-18.123 7.52 25.657 25.657 0 0 1-18.115-7.524 25.622 25.622 0 0 1-7.489-18.118z" fill="#FACD61"/></g><path d="m155.018 414.442 259.329 20.447 17.141-65.778h8.811c22.552 0 41.018 22.041 41.018 47.446v1.888c0 26.434-19.793 49.333-43.325 49.333H86.444c-8.987 0-16.444 6.282-16.444 15.724 0 9.441 7.354 17.165 16.341 17.165h352.324c41.509 0 75.335-36.907 75.335-82.222v-1.888c0-44.287-33.011-80.335-73.701-80.335h-.241l.051-.19c3.637-.801 6.469-4.023 6.469-7.716v-.632c0-2.364-1.079-4.458-2.76-5.895l43.378-166.456H122.622C93.68 155.333 70 178.889 70 208.824l8.551 139.695c2.467 41.386 41.44 63.142 76.467 65.923zm239.312-91.156h-31.838v-72.794h50.724l-18.886 72.794zm20.32-82.222h-52.158v-52.726l35.575.038c13.813 0 24.721 12.759 21.432 26.009l-4.849 26.679zm-61.586-52.745v52.745h-79.043v-52.831l79.043.086zm-88.471-.106v52.851h-82.661v-52.94l82.661.089zm-92.089-.109v52.96h-67.783l-1.832-33.222c0-10.96 8.88-19.793 19.898-19.793l49.717.055zm-66.77 62.388h66.77v72.794h-62.715l-4.055-72.794zm5.069 82.222h61.701v50.056l-14.691-.88c-22.035-1.801-45.057-14.395-46.373-35.334l-.637-13.842zm71.129 51.352v-51.352h82.661v57.308l-82.661-5.956zm92.089 7.252v-58.604h79.043v63.037c0 .423.033.839.095 1.245l-79.138-5.678zm88.471 4.108v-62.712h29.527l-13.795 48.684c-1.549 6.368-10.205 11.38-15.732 14.028zm-88.471-144.934h79.043v72.794h-79.043v-72.794zm-92.089 0h82.661v72.794h-82.661v-72.794z" fill="#9B9B9B"/><path d="M412.102 450.852c-9.235-2.166-14.984-11.329-12.72-20.16l80.323-312.057c2.264-8.831 11.848-14.329 21.082-12.163 9.235 2.166 14.984 11.33 12.72 20.16l-80.323 312.057c-2.265 8.997-11.674 14.328-21.082 12.163z" fill="#BEBEBE"/><path d="M481.111 138.889H514c9.044 0 16.444-7.4 16.444-16.445 0-9.044-7.4-16.444-16.444-16.444h-32.889c-9.044 0-16.444 7.4-16.444 16.444 0 9.045 7.4 16.445 16.444 16.445zM127.556 550c13.623 0 24.666-11.044 24.666-24.667 0-13.622-11.043-24.666-24.666-24.666-13.623 0-24.667 11.044-24.667 24.666 0 13.623 11.044 24.667 24.667 24.667zM423.556 550c13.622 0 24.666-11.044 24.666-24.667 0-13.622-11.044-24.666-24.666-24.666-13.623 0-24.667 11.044-24.667 24.666 0 13.623 11.044 24.667 24.667 24.667z" fill="#0084CE"/></g><defs><clipPath id="a"><path fill="#fff" d="M0 0h600v600H0z"/></clipPath></defs></svg>