<svg width="600" height="600" viewBox="0 0 600 600" fill="none" xmlns="http://www.w3.org/2000/svg">
<g clip-path="url(#clip0_4_291)">
<rect width="600" height="600" rx="100" fill="#F9C23C"/>
<rect x="44" y="45" width="512" height="512" rx="75" fill="black"/>
<rect x="272" y="546" width="56" height="56" fill="black"/>
<rect x="272" width="56" height="56" fill="black"/>
<rect x="544" y="272" width="56" height="56" fill="black"/>
<rect y="272" width="56" height="56" fill="black"/>
<path d="M257 374C303.944 374 342 335.944 342 289C342 242.056 303.944 204 257 204C210.056 204 172 242.056 172 289C172 335.944 210.056 374 257 374Z" fill="#F9C23C"/>
<circle opacity="0.53" cx="257.283" cy="289.283" r="67.15" fill="#D3883E"/>
<mask id="mask0_4_291" style="mask-type:alpha" maskUnits="userSpaceOnUse" x="190" y="222" width="135" height="135">
<path d="M324.433 289.283C324.433 326.369 294.369 356.433 257.283 356.433C220.197 356.433 190.133 326.369 190.133 289.283C190.133 252.197 220.197 222.133 257.283 222.133C294.369 222.133 324.433 252.197 324.433 289.283Z" fill="white"/>
</mask>
<g mask="url(#mask0_4_291)">
<path d="M254.351 270.813L254.358 271.18L236.158 297.602C233.211 297.468 230.254 297.986 227.447 299.14C226.224 299.636 225.057 300.259 223.965 300.998L183.997 284.536C183.997 284.536 183.072 299.742 186.926 311.073L215.181 322.724C216.576 329.061 220.945 334.617 227.365 337.289C232.416 339.386 238.093 339.394 243.15 337.311C248.207 335.229 252.229 331.225 254.335 326.181C255.458 323.493 256 320.599 255.925 317.688L281.941 299.094L282.581 299.105C298.165 299.105 310.833 286.408 310.833 270.813C310.833 255.217 298.189 242.567 282.581 242.534C267.003 242.534 254.328 255.217 254.328 270.813H254.351ZM249.981 324.355C246.602 332.485 237.276 336.311 229.171 332.935C225.575 331.425 222.659 328.645 220.98 325.126L230.178 328.935C231.599 329.527 233.122 329.832 234.661 329.834C236.2 329.837 237.724 329.536 239.147 328.95C240.57 328.363 241.863 327.502 242.953 326.416C244.042 325.33 244.907 324.04 245.498 322.62C246.693 319.75 246.701 316.523 245.517 313.648C244.334 310.773 242.057 308.485 239.187 307.286L229.657 303.349C233.325 301.955 237.495 301.909 241.395 303.528C245.347 305.161 248.368 308.236 249.986 312.169C251.604 316.102 251.594 320.438 249.963 324.355M282.606 289.663C277.612 289.649 272.827 287.658 269.299 284.126C265.771 280.594 263.788 275.808 263.783 270.817C263.789 265.827 265.773 261.043 269.301 257.512C272.829 253.98 277.613 251.99 282.606 251.977C287.6 251.989 292.386 253.979 295.914 257.51C299.443 261.041 301.428 265.827 301.433 270.817C301.429 275.809 299.445 280.595 295.916 284.128C292.387 287.66 287.601 289.65 282.606 289.663ZM268.502 270.787C268.499 267.037 269.986 263.44 272.636 260.785C275.285 258.13 278.882 256.635 282.634 256.629C290.432 256.629 296.775 262.971 296.775 270.787C296.777 274.538 295.289 278.136 292.637 280.79C289.985 283.444 286.387 284.937 282.634 284.94C278.882 284.935 275.286 283.441 272.636 280.787C269.985 278.133 268.5 274.537 268.502 270.787Z" fill="#FACD61"/>
</g>
<path d="M155.018 414.442L414.347 434.889L431.488 369.112H440.299C462.851 369.112 481.317 391.152 481.317 416.557V418.445C481.317 444.879 461.524 467.778 437.992 467.778H86.4444C77.4566 467.778 70 474.06 70 483.502C70 492.943 77.3536 500.667 86.3415 500.667H438.665C480.174 500.667 514 463.761 514 418.445V416.557C514 372.271 480.989 336.223 440.299 336.223H440.058L440.108 336.032C443.746 335.231 446.578 332.01 446.578 328.316V327.685C446.578 325.32 445.499 323.227 443.818 321.789L487.196 155.334H122.622C93.68 155.334 70 178.889 70 208.824L78.5511 348.52C81.0178 389.906 119.991 411.662 155.018 414.442ZM394.33 323.648H362.131V250.131H414.65L394.33 323.648ZM414.65 250.131H362.131V188.338L398.067 188.377C411.88 188.377 422.788 201.136 419.499 214.386L414.65 250.131ZM362.131 188.319V250.131H265.399V188.233L362.131 188.319ZM265.399 188.214V250.131H182.209V188.124L265.399 188.214ZM182.209 188.104V250.131H104.721L102.889 207.843C102.889 196.883 111.769 188.049 122.787 188.049L182.209 188.104ZM104.721 250.131H182.209V323.648H109.789L104.721 250.131ZM109.789 323.648H182.209V384.066L157.813 381.891C135.778 380.09 112.756 367.495 111.44 346.556L109.789 323.648ZM182.209 384.066V323.648H265.399V391.318L182.209 384.066ZM265.399 391.318V323.648H362.131V395.752C362.131 396.174 362.068 396.59 362.131 396.996L265.399 391.318ZM362.131 396.996V323.648H394.33L378.224 381.399C376.675 387.766 367.658 394.349 362.131 396.996ZM265.399 250.131H362.131V323.648H265.399V250.131ZM182.209 250.131H265.399V323.648H182.209V250.131Z" fill="#9B9B9B"/>
<path d="M412.102 450.852C402.867 448.686 397.118 439.523 399.383 430.692L479.705 118.635C481.97 109.804 491.554 104.306 500.787 106.472C510.022 108.638 515.771 117.802 513.507 126.632L433.184 438.689C430.92 447.686 421.51 453.017 412.102 450.852Z" fill="#BEBEBE"/>
<path d="M481.111 138.889H514C523.044 138.889 530.444 131.489 530.444 122.444C530.444 113.4 523.044 106 514 106H481.111C472.067 106 464.667 113.4 464.667 122.444C464.667 131.489 472.067 138.889 481.111 138.889Z" fill="#0084CE"/>
<path d="M127.557 550C141.18 550 152.224 538.956 152.224 525.333C152.224 511.711 141.18 500.667 127.557 500.667C113.934 500.667 102.89 511.711 102.89 525.333C102.89 538.956 113.934 550 127.557 550Z" fill="#0084CE"/>
<path d="M423.556 550C437.179 550 448.223 538.956 448.223 525.333C448.223 511.711 437.179 500.667 423.556 500.667C409.933 500.667 398.889 511.711 398.889 525.333C398.889 538.956 409.933 550 423.556 550Z" fill="#0084CE"/>
</g>
<defs>
<clipPath id="clip0_4_291">
<rect width="600" height="600" fill="white"/>
</clipPath>
</defs>
</svg>
