<svg width="440" height="280" fill="none" xmlns="http://www.w3.org/2000/svg"><rect width="440" height="280" rx="30" fill="#F9C23C"/><path d="M209 258h22v22h-22v-22zM209 0h22v22h-22V0zM418 129h22v22h-22v-22zM0 129h22v22H0v-22z" fill="#000"/><rect x="20" y="20" width="400" height="240" rx="20" fill="#000"/><path d="M120.727 181.395c39.691 0 71.866-32.069 71.866-71.628s-32.175-71.628-71.866-71.628S48.86 70.21 48.86 109.767c0 39.559 32.176 71.628 71.867 71.628z" fill="#F9C23C"/><ellipse opacity=".53" cx="120.966" cy="110.006" rx="56.775" ry="56.586" fill="#D3883E"/><mask id="a" style="mask-type:alpha" maskUnits="userSpaceOnUse" x="64" y="53" width="114" height="114"><path d="M177.741 110.006c0 31.252-25.419 56.586-56.775 56.586-31.356 0-56.774-25.334-56.774-56.586S89.61 53.42 120.966 53.42s56.775 25.334 56.775 56.586z" fill="#fff"/></mask><g mask="url(#a)"><path d="m118.487 94.44.006.31-15.388 22.266a17.305 17.305 0 0 0-7.365 1.295c-1.034.419-2.02.944-2.944 1.566l-33.792-13.872s-.782 12.813 2.476 22.362l23.89 9.818a17.31 17.31 0 0 0 10.3 12.273 17.513 17.513 0 0 0 13.347.02 17.42 17.42 0 0 0 9.456-9.38 17.343 17.343 0 0 0 1.345-7.156l21.996-15.67.541.01c13.177 0 23.887-10.699 23.887-23.842 0-13.142-10.691-23.802-23.887-23.83-13.171 0-23.887 10.688-23.887 23.83h.019zm-3.694 45.119c-2.858 6.851-10.742 10.075-17.595 7.231a13.418 13.418 0 0 1-6.926-6.581l7.777 3.21a9.92 9.92 0 0 0 7.583.012 9.89 9.89 0 0 0 5.37-5.334 9.846 9.846 0 0 0 .016-7.56 9.902 9.902 0 0 0-5.352-5.361l-8.057-3.318a13.427 13.427 0 0 1 9.924.151c3.341 1.376 5.896 3.968 7.263 7.282a13.309 13.309 0 0 1-.019 10.268m27.6-29.234a15.984 15.984 0 0 1-11.251-4.666 15.862 15.862 0 0 1-4.664-11.215 15.863 15.863 0 0 1 4.665-11.212 15.99 15.99 0 0 1 11.25-4.664 15.99 15.99 0 0 1 11.252 4.663 15.867 15.867 0 0 1 4.666 11.213 15.864 15.864 0 0 1-4.665 11.217 15.99 15.99 0 0 1-11.253 4.664zm-11.926-15.906a11.902 11.902 0 0 1 3.495-8.429 11.995 11.995 0 0 1 8.454-3.502c6.593 0 11.957 5.344 11.957 11.93a11.902 11.902 0 0 1-3.5 8.43 11.998 11.998 0 0 1-8.457 3.498 11.993 11.993 0 0 1-8.453-3.5 11.9 11.9 0 0 1-3.496-8.427z" fill="#FACD61"/></g><path d="m72.342 192.764 121.02 9.51 7.999-30.594h4.112c10.524 0 19.141 10.251 19.141 22.067v.878c0 12.295-9.236 22.946-20.218 22.946H40.341c-4.195 0-7.674 2.922-7.674 7.314 0 4.391 3.431 7.983 7.626 7.983H204.71c19.371 0 35.157-17.165 35.157-38.243v-.878c0-20.598-15.405-37.365-34.394-37.365h-.113l.024-.088c1.697-.373 3.019-1.871 3.019-3.589v-.294c0-1.1-.503-2.073-1.288-2.742l20.243-77.421H57.224c-13.507 0-24.557 10.956-24.557 24.88l3.99 64.974c1.151 19.249 19.339 29.368 35.685 30.662zm111.679-42.398h-14.858v-33.858h23.671l-8.813 33.858zm9.482-38.243h-24.34V87.599l16.601.018c6.447 0 11.537 5.934 10.002 12.097l-2.263 12.409zm-28.74-24.533v24.533h-36.887V87.55l36.887.04zm-41.286-.049v24.582H84.902V87.499l38.575.042zm-42.975-.05v24.632H48.87l-.855-15.452c0-5.098 4.144-9.206 9.285-9.206l23.202.025zm-31.16 29.017h31.16v33.858H51.235l-1.892-33.858zm2.366 38.243h28.794v23.282l-6.856-.41c-10.283-.837-21.027-6.695-21.64-16.434l-.298-6.438zm33.194 23.884v-23.884h38.575v26.655l-38.575-2.771zm42.974 3.373v-27.257h36.887v29.319c0 .197.015.39.045.579l-36.932-2.641zm41.287 1.911v-29.168h13.779l-6.438 22.644c-.723 2.961-4.762 5.292-7.341 6.524zm-41.287-67.411h36.887v33.858h-36.887v-33.858zm-42.974 0h38.575v33.858H84.902v-33.858z" fill="#9B9B9B"/><path d="M192.314 209.698c-4.31-1.007-6.992-5.269-5.936-9.376l37.484-145.143c1.057-4.107 5.53-6.665 9.839-5.657 4.309 1.007 6.992 5.27 5.935 9.376l-37.484 145.143c-1.056 4.185-5.447 6.665-9.838 5.657z" fill="#BEBEBE"/><path d="M224.519 64.6h15.348c4.22 0 7.674-3.442 7.674-7.65 0-4.206-3.454-7.648-7.674-7.648h-15.348c-4.221 0-7.675 3.442-7.675 7.649 0 4.206 3.454 7.648 7.675 7.648zM59.526 255.814c6.357 0 11.511-5.137 11.511-11.473 0-6.336-5.154-11.473-11.511-11.473-6.358 0-11.511 5.137-11.511 11.473 0 6.336 5.154 11.473 11.51 11.473zM197.659 255.814c6.357 0 11.511-5.137 11.511-11.473 0-6.336-5.154-11.473-11.511-11.473-6.357 0-11.511 5.137-11.511 11.473 0 6.336 5.154 11.473 11.511 11.473z" fill="#0084CE"/><path d="M274.282 99.985c0-.587-.087-1.113-.259-1.579-.173-.483-.492-.931-.958-1.346-.465-.413-1.138-.828-2.018-1.242-.863-.431-2.001-.88-3.416-1.345a51.148 51.148 0 0 1-4.788-1.864c-1.535-.707-2.907-1.526-4.114-2.458-1.208-.949-2.166-2.053-2.873-3.313-.707-1.276-1.061-2.76-1.061-4.45 0-1.623.362-3.08 1.087-4.374.724-1.311 1.734-2.424 3.028-3.339 1.311-.931 2.846-1.639 4.606-2.122 1.76-.5 3.684-.75 5.771-.75 2.761 0 5.193.483 7.298 1.449 2.122.949 3.778 2.303 4.969 4.063 1.207 1.743 1.811 3.804 1.811 6.185h-9.032c0-.949-.198-1.786-.595-2.51-.379-.725-.957-1.294-1.734-1.708-.776-.414-1.751-.621-2.924-.621-1.139 0-2.096.172-2.872.517-.777.345-1.363.811-1.76 1.398a3.229 3.229 0 0 0-.595 1.889c0 .57.155 1.087.465 1.553.328.448.785.87 1.372 1.268.604.397 1.328.776 2.174 1.138.862.363 1.829.716 2.898 1.061 2.002.639 3.779 1.355 5.331 2.148 1.57.777 2.89 1.665 3.96 2.666 1.087.983 1.906 2.105 2.458 3.364.57 1.26.854 2.683.854 4.27 0 1.691-.328 3.192-.983 4.503-.656 1.311-1.596 2.424-2.821 3.338-1.225.898-2.691 1.579-4.399 2.045-1.708.466-3.615.699-5.72.699-1.932 0-3.838-.242-5.719-.725-1.863-.5-3.554-1.259-5.072-2.277a11.804 11.804 0 0 1-3.649-3.96c-.897-1.622-1.346-3.545-1.346-5.77h9.11c0 1.103.146 2.035.44 2.794.293.759.724 1.372 1.294 1.837.569.449 1.268.777 2.096.984.828.19 1.777.285 2.846.285 1.156 0 2.088-.164 2.795-.492.708-.345 1.225-.794 1.553-1.346.328-.569.492-1.19.492-1.863zm2.018 45.257h9.058c-.121 2.622-.828 4.934-2.122 6.935-1.294 2.002-3.088 3.563-5.383 4.684-2.277 1.104-4.969 1.657-8.074 1.657-2.519 0-4.771-.423-6.755-1.268a13.778 13.778 0 0 1-5.02-3.649c-1.363-1.588-2.407-3.511-3.131-5.771-.708-2.261-1.061-4.805-1.061-7.635v-2.044c0-2.83.37-5.374 1.112-7.634.759-2.278 1.829-4.21 3.209-5.797a13.915 13.915 0 0 1 5.021-3.675c1.949-.845 4.115-1.268 6.495-1.268 3.278 0 6.047.586 8.308 1.76 2.26 1.173 4.011 2.786 5.253 4.839 1.242 2.036 1.975 4.356 2.2 6.961h-9.058c-.034-1.414-.276-2.596-.725-3.545a4.473 4.473 0 0 0-2.122-2.174c-.966-.483-2.251-.724-3.856-.724-1.121 0-2.096.207-2.924.621-.828.414-1.518 1.069-2.07 1.966-.552.898-.966 2.062-1.242 3.494-.259 1.415-.389 3.123-.389 5.124v2.096c0 2.002.121 3.71.363 5.124.241 1.415.629 2.571 1.164 3.468.535.897 1.225 1.561 2.071 1.993.862.414 1.915.621 3.157.621 1.38 0 2.545-.216 3.493-.647a4.894 4.894 0 0 0 2.2-2.019c.518-.914.794-2.079.828-3.493zm3.96 38.036v6.988h-19.332v-6.988h19.332zm-16.304-14.958V206h-9.083v-37.68h9.083zm22.411 0V206h-9.057v-37.68h9.057z" fill="#F9C23C"/><path d="M302.386 81.999v6.056h-16.873v-6.056h16.873zm-13.327-6.961h8.721v25.827c0 .742.086 1.32.259 1.734.172.396.465.681.879.854.432.155 1.001.233 1.708.233.501 0 .915-.009 1.243-.026.327-.035.638-.078.931-.13v6.237c-.742.242-1.518.423-2.329.544-.811.138-1.673.207-2.588.207-1.863 0-3.459-.294-4.787-.88a6.248 6.248 0 0 1-3.002-2.769c-.69-1.26-1.035-2.899-1.035-4.917V75.038zm30.356 35.48c-2.278 0-4.314-.354-6.108-1.061-1.794-.725-3.312-1.717-4.555-2.977a13.21 13.21 0 0 1-2.82-4.347 14.193 14.193 0 0 1-.958-5.202v-.983c0-2.053.285-3.951.854-5.694.569-1.76 1.415-3.295 2.536-4.606 1.122-1.311 2.528-2.33 4.219-3.054 1.69-.742 3.657-1.113 5.9-1.113 1.984 0 3.761.32 5.331.958 1.57.638 2.898 1.553 3.985 2.743 1.104 1.19 1.941 2.631 2.511 4.322.586 1.69.879 3.588.879 5.693v3.546h-22.877v-5.46h14.363v-.674c.018-.931-.146-1.725-.491-2.38a3.386 3.386 0 0 0-1.45-1.501c-.638-.346-1.414-.518-2.329-.518-.949 0-1.734.207-2.355.621-.604.414-1.078.983-1.423 1.708-.328.707-.561 1.527-.699 2.459a20.135 20.135 0 0 0-.207 2.95v.983c0 1.035.138 1.976.414 2.821.294.845.708 1.57 1.242 2.174a5.864 5.864 0 0 0 1.967 1.371c.777.328 1.656.492 2.64.492 1.19 0 2.363-.224 3.519-.673 1.156-.448 2.148-1.19 2.976-2.225l3.96 4.71c-.569.81-1.38 1.595-2.433 2.355-1.035.759-2.277 1.38-3.726 1.863-1.449.466-3.071.699-4.865.699zm29.864-7.557V91.419c0-.794-.112-1.475-.337-2.044a2.693 2.693 0 0 0-1.061-1.32c-.483-.328-1.13-.492-1.941-.492-.655 0-1.216.112-1.682.336-.466.225-.819.561-1.061 1.01-.241.448-.362 1.018-.362 1.708h-8.721c0-1.294.284-2.493.854-3.598.586-1.12 1.414-2.096 2.484-2.924 1.087-.828 2.381-1.466 3.882-1.915 1.518-.466 3.209-.699 5.072-.699 2.226 0 4.21.371 5.952 1.113 1.76.742 3.149 1.855 4.167 3.339 1.018 1.466 1.527 3.312 1.527 5.538v11.464c0 1.829.103 3.218.31 4.167.207.931.501 1.751.88 2.458v.44h-8.747c-.414-.863-.724-1.915-.932-3.157a26.138 26.138 0 0 1-.284-3.882zm1.061-10.067.052 4.658h-3.856c-.811 0-1.501.112-2.071.337-.552.224-1 .535-1.345.931-.328.38-.57.811-.725 1.294a5.532 5.532 0 0 0-.207 1.527c0 .518.121.984.362 1.398.259.396.604.707 1.035.931.432.224.915.337 1.45.337.966 0 1.785-.182 2.458-.544.69-.379 1.216-.837 1.579-1.371.362-.535.543-1.036.543-1.501l1.915 3.571a23.86 23.86 0 0 1-1.19 2.096 9.15 9.15 0 0 1-1.631 1.967c-.638.586-1.423 1.07-2.355 1.449-.931.362-2.061.544-3.39.544-1.725 0-3.312-.354-4.761-1.061-1.432-.708-2.58-1.691-3.442-2.951-.863-1.276-1.294-2.743-1.294-4.399 0-1.449.259-2.743.776-3.882.535-1.139 1.337-2.105 2.407-2.898 1.07-.794 2.433-1.398 4.089-1.812 1.656-.414 3.606-.621 5.848-.621h3.753zm21.35-4.969V110h-8.721V81.999h8.177l.544 5.926zm-1.061 7.117-1.993.052c0-1.967.233-3.779.699-5.435.466-1.656 1.156-3.097 2.07-4.322a9.53 9.53 0 0 1 3.365-2.846c1.345-.673 2.898-1.01 4.658-1.01 1.225 0 2.337.19 3.338.57a6.414 6.414 0 0 1 2.588 1.734c.725.776 1.277 1.794 1.656 3.053.397 1.243.595 2.735.595 4.477V110h-8.721V92.428c0-1.19-.138-2.087-.414-2.691-.259-.604-.638-1.01-1.138-1.216-.501-.207-1.113-.311-1.838-.311-.759 0-1.44.172-2.044.518a4.76 4.76 0 0 0-1.553 1.449c-.414.604-.733 1.32-.958 2.148-.207.828-.31 1.734-.31 2.717zm15.993 0-2.433.052c0-1.967.216-3.779.647-5.435.449-1.656 1.113-3.097 1.993-4.322a9.3 9.3 0 0 1 3.338-2.846c1.329-.673 2.873-1.01 4.633-1.01 1.276 0 2.45.19 3.519.57 1.07.38 1.993.992 2.769 1.837.777.846 1.381 1.967 1.812 3.364.431 1.38.647 3.089.647 5.124V110H394.8V92.376c0-1.156-.138-2.027-.414-2.613-.259-.604-.639-1.01-1.139-1.217-.5-.224-1.095-.336-1.786-.336-.828 0-1.544.172-2.148.518a4.53 4.53 0 0 0-1.526 1.449c-.397.604-.69 1.32-.88 2.148a12.15 12.15 0 0 0-.285 2.717zm-82.838 55.919v-11.542c0-.794-.112-1.475-.337-2.044a2.689 2.689 0 0 0-1.061-1.32c-.483-.328-1.13-.492-1.941-.492-.655 0-1.216.112-1.682.336a2.318 2.318 0 0 0-1.061 1.01c-.241.448-.362 1.018-.362 1.708h-8.721c0-1.294.284-2.493.854-3.597.586-1.122 1.414-2.097 2.484-2.925 1.087-.828 2.381-1.466 3.882-1.915 1.518-.466 3.209-.699 5.072-.699 2.226 0 4.21.371 5.952 1.113 1.76.742 3.149 1.855 4.167 3.339 1.018 1.466 1.527 3.312 1.527 5.538v11.464c0 1.829.103 3.218.31 4.167.207.931.501 1.751.88 2.458v.44H305c-.414-.863-.725-1.915-.932-3.157a26.138 26.138 0 0 1-.284-3.882zm1.061-10.067.051 4.658h-3.855c-.811 0-1.501.112-2.071.337-.552.224-1 .535-1.345.931-.328.38-.57.811-.725 1.294a5.532 5.532 0 0 0-.207 1.527c0 .518.121.984.362 1.398.259.396.604.707 1.035.931.432.224.915.337 1.45.337.966 0 1.785-.182 2.458-.544.69-.379 1.216-.837 1.579-1.371.362-.535.543-1.036.543-1.501l1.915 3.571a23.86 23.86 0 0 1-1.19 2.096 9.18 9.18 0 0 1-1.631 1.967c-.638.586-1.423 1.07-2.355 1.449-.931.362-2.061.544-3.39.544-1.725 0-3.312-.354-4.761-1.061-1.432-.708-2.58-1.691-3.442-2.951-.863-1.276-1.294-2.743-1.294-4.399 0-1.449.258-2.743.776-3.882.535-1.139 1.337-2.105 2.407-2.898 1.069-.794 2.432-1.398 4.089-1.812 1.656-.414 3.605-.621 5.848-.621h3.753zm21.35-3.959V158h-8.721v-28.001h8.151l.57 6.936zm8.281-7.143-.155 8.1c-.345-.034-.811-.078-1.398-.129a17.181 17.181 0 0 0-1.475-.078c-1.018 0-1.898.121-2.639.362-.725.225-1.329.57-1.812 1.036-.466.448-.811 1.017-1.035 1.708-.207.69-.302 1.492-.285 2.406l-1.578-1.035c0-1.88.181-3.588.543-5.124.38-1.553.914-2.89 1.605-4.011.69-1.139 1.526-2.01 2.51-2.614.983-.621 2.087-.932 3.312-.932.432 0 .854.026 1.268.078.432.052.811.129 1.139.233zm19.047.207v6.056H336.65v-6.056h16.873zm-13.328-6.961h8.722v25.827c0 .742.086 1.32.258 1.734.173.396.466.681.88.854.431.155 1.001.233 1.708.233.501 0 .915-.009 1.242-.026.328-.035.639-.078.932-.13v6.237c-.742.242-1.518.423-2.329.544a15.43 15.43 0 0 1-2.588.207c-1.863 0-3.459-.294-4.788-.88a6.252 6.252 0 0 1-3.002-2.769c-.69-1.26-1.035-2.899-1.035-4.917v-26.914zm-36.5 83.48c-2.278 0-4.313-.354-6.108-1.061-1.794-.725-3.312-1.717-4.554-2.977a13.196 13.196 0 0 1-2.821-4.347 14.193 14.193 0 0 1-.958-5.202v-.983c0-2.053.285-3.951.854-5.694.57-1.759 1.415-3.295 2.536-4.606 1.122-1.311 2.528-2.329 4.219-3.054 1.69-.742 3.657-1.113 5.9-1.113 1.984 0 3.761.32 5.331.958 1.57.638 2.899 1.553 3.985 2.743 1.105 1.191 1.941 2.631 2.511 4.322.586 1.691.88 3.588.88 5.693v3.546h-22.877v-5.461h14.362v-.673c.018-.931-.146-1.725-.491-2.38a3.384 3.384 0 0 0-1.45-1.501c-.638-.346-1.414-.518-2.329-.518-.949 0-1.733.207-2.355.621-.603.414-1.078.983-1.423 1.708-.328.707-.561 1.527-.699 2.459a20.128 20.128 0 0 0-.207 2.95v.983c0 1.035.138 1.976.414 2.821.294.845.708 1.57 1.243 2.174a5.85 5.85 0 0 0 1.966 1.371c.777.328 1.657.492 2.64.492 1.19 0 2.364-.224 3.52-.673 1.155-.448 2.147-1.19 2.976-2.225l3.959 4.71c-.569.81-1.38 1.595-2.433 2.355-1.035.759-2.277 1.38-3.726 1.863-1.449.466-3.071.699-4.865.699zm24.533-40.268V206h-8.747v-39.75h8.747zm14.182 17.132v33.384h-8.722v-38.767h8.126l.596 5.383zm17.183 8.281v.544c0 2.035-.233 3.925-.699 5.667-.465 1.743-1.156 3.261-2.07 4.555a9.734 9.734 0 0 1-3.416 3.028c-1.346.707-2.907 1.061-4.684 1.061-1.674 0-3.114-.371-4.322-1.113-1.207-.742-2.217-1.769-3.028-3.08-.811-1.311-1.466-2.812-1.966-4.503a41.09 41.09 0 0 1-1.191-5.357v-.698c.293-2.019.69-3.891 1.191-5.616.5-1.743 1.155-3.261 1.966-4.555.811-1.294 1.812-2.303 3.002-3.028 1.208-.724 2.649-1.087 4.322-1.087 1.777 0 3.338.337 4.684 1.01a9.21 9.21 0 0 1 3.416 2.898c.932 1.242 1.631 2.735 2.096 4.477.466 1.743.699 3.675.699 5.797zm-8.721.544v-.544c0-1.087-.078-2.079-.233-2.976-.155-.914-.405-1.708-.75-2.381-.328-.673-.768-1.19-1.32-1.553-.552-.362-1.234-.543-2.045-.543-.931 0-1.716.147-2.355.44a3.405 3.405 0 0 0-1.501 1.294c-.362.569-.621 1.285-.776 2.148-.138.845-.198 1.837-.181 2.976v2.122c-.035 1.311.095 2.467.388 3.468.293.983.802 1.751 1.527 2.303.724.552 1.708.828 2.95.828.828 0 1.518-.19 2.07-.569.552-.397.992-.941 1.32-1.631.328-.707.561-1.518.699-2.432.138-.915.207-1.898.207-2.95zm26.163 14.311c-2.277 0-4.313-.354-6.107-1.061-1.794-.725-3.312-1.717-4.555-2.977a13.194 13.194 0 0 1-2.82-4.347 14.193 14.193 0 0 1-.958-5.202v-.983c0-2.053.285-3.951.854-5.694.569-1.759 1.415-3.295 2.536-4.606 1.122-1.311 2.528-2.329 4.218-3.054 1.691-.742 3.658-1.113 5.901-1.113 1.984 0 3.761.32 5.331.958 1.57.638 2.898 1.553 3.985 2.743 1.104 1.191 1.941 2.631 2.511 4.322.586 1.691.879 3.588.879 5.693v3.546h-22.877v-5.461h14.363v-.673c.017-.931-.146-1.725-.491-2.38a3.384 3.384 0 0 0-1.45-1.501c-.638-.346-1.414-.518-2.329-.518-.949 0-1.734.207-2.355.621-.604.414-1.078.983-1.423 1.708-.328.707-.561 1.527-.699 2.459a20.128 20.128 0 0 0-.207 2.95v.983c0 1.035.138 1.976.414 2.821.293.845.708 1.57 1.242 2.174a5.854 5.854 0 0 0 1.967 1.371c.777.328 1.656.492 2.64.492 1.19 0 2.363-.224 3.519-.673 1.156-.448 2.148-1.19 2.976-2.225l3.96 4.71c-.569.81-1.38 1.595-2.433 2.355-1.035.759-2.277 1.38-3.726 1.863-1.449.466-3.071.699-4.866.699zm24.12-21.583V206h-8.722v-28.001h8.152l.57 6.936zm8.281-7.143-.155 8.1c-.345-.034-.811-.078-1.398-.129a17.181 17.181 0 0 0-1.475-.078c-1.018 0-1.898.121-2.64.362-.724.225-1.328.57-1.811 1.036-.466.448-.811 1.017-1.035 1.708-.207.69-.302 1.492-.285 2.406l-1.579-1.035c0-1.88.182-3.588.544-5.124.379-1.553.914-2.89 1.604-4.011.69-1.139 1.527-2.01 2.511-2.614.983-.621 2.087-.932 3.312-.932.431 0 .854.026 1.268.078.432.052.811.129 1.139.233z" fill="#BEBEBE"/></svg>