<svg width="1400" height="560" fill="none" xmlns="http://www.w3.org/2000/svg"><rect width="1400" height="560" rx="50" fill="#F9C23C"/><rect x="35" y="35" width="1330" height="490" rx="40" fill="#000"/><path fill="#000" d="M672 504h56v56h-56zM1344 252h56v56h-56zM0 252h56v56H0zM672 0h56v56h-56z"/><path d="M243.929 343.679c73.886 0 133.783-59.698 133.783-133.34C377.712 136.698 317.815 77 243.929 77c-73.887 0-133.784 59.698-133.784 133.339 0 73.642 59.897 133.34 133.784 133.34z" fill="#F9C23C"/><ellipse opacity=".53" cx="244.375" cy="210.784" rx="105.689" ry="105.338" fill="#D3883E"/><mask id="a" style="mask-type:alpha" maskUnits="userSpaceOnUse" x="138" y="105" width="213" height="212"><path d="M350.064 210.784c0 58.176-47.319 105.338-105.689 105.338-58.371 0-105.69-47.162-105.69-105.338 0-58.177 47.319-105.338 105.69-105.338 58.37 0 105.689 47.161 105.689 105.338z" fill="#fff"/></mask><g mask="url(#a)"><path d="m239.76 181.808.011.575-28.645 41.449c-4.639-.211-9.293.602-13.712 2.413a29.705 29.705 0 0 0-5.48 2.915l-62.906-25.824s-1.456 23.852 4.609 41.627l44.472 18.278a32.221 32.221 0 0 0 19.177 22.847 32.607 32.607 0 0 0 24.844.036 32.422 32.422 0 0 0 17.604-17.461 32.266 32.266 0 0 0 2.502-13.322l40.949-29.169 1.006.018c24.529 0 44.467-19.917 44.467-44.382 0-24.465-19.901-44.31-44.467-44.361-24.519 0-44.468 19.896-44.468 44.361h.037zm-6.878 83.991c-5.319 12.754-19.997 18.755-32.754 13.461a24.986 24.986 0 0 1-12.892-12.251l14.477 5.976a18.506 18.506 0 0 0 14.117.022 18.454 18.454 0 0 0 5.989-3.974 18.373 18.373 0 0 0 4.006-5.956 18.337 18.337 0 0 0 .031-14.074 18.435 18.435 0 0 0-9.964-9.979l-14.999-6.177a24.989 24.989 0 0 1 18.475.281c6.219 2.562 10.975 7.386 13.521 13.555 2.546 6.169 2.532 12.972-.036 19.116m51.378-54.421a29.77 29.77 0 0 1-20.944-8.686 29.53 29.53 0 0 1-8.682-20.877 29.534 29.534 0 0 1 8.684-20.873 29.772 29.772 0 0 1 20.942-8.683 29.767 29.767 0 0 1 20.946 8.681 29.526 29.526 0 0 1 8.687 20.875 29.532 29.532 0 0 1-8.684 20.88 29.77 29.77 0 0 1-20.949 8.683zm-22.199-29.61a22.146 22.146 0 0 1 6.506-15.691 22.328 22.328 0 0 1 15.737-6.519c12.274 0 22.257 9.948 22.257 22.21a22.147 22.147 0 0 1-6.513 15.69 22.325 22.325 0 0 1-15.744 6.512 22.328 22.328 0 0 1-15.737-6.515 22.147 22.147 0 0 1-6.506-15.687z" fill="#FACD61"/></g><path d="m153.857 364.842 225.286 17.703 14.891-56.953h7.655c19.591 0 35.632 19.084 35.632 41.081v1.634c0 22.888-17.194 42.715-37.637 42.715H94.286c-7.808 0-14.286 5.439-14.286 13.615 0 8.174 6.388 14.861 14.196 14.861H400.27c36.06 0 65.445-31.954 65.445-71.191v-1.634c0-38.345-28.677-69.557-64.025-69.557h-.21l.044-.165c3.16-.694 5.62-3.483 5.62-6.681v-.547c0-2.047-.937-3.86-2.397-5.104l37.683-144.124H125.714C100.571 140.495 80 160.89 80 186.809l7.429 120.954c2.142 35.834 36 54.671 66.428 57.079zm207.897-78.927h-27.659v-63.028h44.066l-16.407 63.028zm17.653-71.191h-45.312v-45.652l30.905.033c12 0 21.476 11.047 18.619 22.52l-4.212 23.099zm-53.502-45.669v45.669h-68.667v-45.743l68.667.074zm-76.857-.091v45.76h-71.81v-45.838l71.81.078zm-80-.095v45.855h-58.885l-1.592-28.765c0-9.489 7.715-17.137 17.286-17.137l43.191.047zm-58.005 54.018h58.005v63.028h-54.482l-3.523-63.028zm4.404 71.191h53.601v43.341l-12.762-.762c-19.143-1.559-39.143-12.464-40.286-30.594l-.553-11.985zm61.791 44.463v-44.463h71.81v49.62l-71.81-5.157zm80 6.279v-50.742h68.667v54.58c0 .366.028.727.083 1.078l-68.75-4.916zm76.857 3.557v-54.299h25.651l-11.984 42.153c-1.346 5.513-8.865 9.853-13.667 12.146zm-76.857-125.49h68.667v63.028h-68.667v-63.028zm-80 0h71.81v63.028h-71.81v-63.028z" fill="#9B9B9B"/><path d="M377.193 396.366c-8.023-1.875-13.017-9.808-11.05-17.454l69.778-270.192c1.968-7.646 10.293-12.406 18.315-10.531 8.023 1.875 13.017 9.809 11.05 17.455l-69.779 270.192c-1.967 7.79-10.141 12.406-18.314 10.53z" fill="#BEBEBE"/><path d="M437.143 126.257h28.571c7.857 0 14.286-6.407 14.286-14.238 0-7.832-6.429-14.239-14.286-14.239h-28.571c-7.857 0-14.286 6.407-14.286 14.239 0 7.831 6.429 14.238 14.286 14.238zM130 482.213c11.835 0 21.429-9.562 21.429-21.357s-9.594-21.357-21.429-21.357c-11.835 0-21.429 9.562-21.429 21.357s9.594 21.357 21.429 21.357zM387.143 482.213c11.834 0 21.429-9.562 21.429-21.357s-9.595-21.357-21.429-21.357c-11.834 0-21.429 9.562-21.429 21.357s9.595 21.357 21.429 21.357z" fill="#0084CE"/><path d="M558.25 229.388c0-1.793-.264-3.402-.791-4.826-.527-1.476-1.503-2.847-2.927-4.113-1.424-1.265-3.48-2.531-6.17-3.797-2.636-1.318-6.117-2.689-10.441-4.113a155.92 155.92 0 0 1-14.634-5.695c-4.693-2.162-8.886-4.667-12.577-7.515-3.691-2.9-6.618-6.275-8.78-10.125-2.162-3.902-3.243-8.437-3.243-13.605 0-4.957 1.107-9.413 3.322-13.369 2.215-4.007 5.3-7.409 9.255-10.204 4.007-2.847 8.701-5.009 14.08-6.486 5.379-1.529 11.259-2.294 17.639-2.294 8.438 0 15.873 1.477 22.307 4.43 6.486 2.9 11.549 7.04 15.188 12.419 3.691 5.326 5.537 11.628 5.537 18.905h-27.607c0-2.9-.606-5.458-1.819-7.673-1.16-2.215-2.927-3.955-5.3-5.221-2.373-1.265-5.352-1.898-8.938-1.898-3.481 0-6.408.527-8.781 1.582-2.373 1.055-4.166 2.479-5.379 4.272-1.212 1.74-1.819 3.665-1.819 5.774 0 1.74.475 3.322 1.424 4.746 1.002 1.371 2.399 2.663 4.192 3.876 1.846 1.213 4.061 2.373 6.645 3.48 2.637 1.108 5.59 2.189 8.859 3.244 6.117 1.951 11.549 4.139 16.295 6.565 4.799 2.373 8.833 5.089 12.103 8.148 3.322 3.005 5.827 6.433 7.514 10.283 1.741 3.849 2.611 8.2 2.611 13.051 0 5.168-1.002 9.756-3.006 13.764-2.004 4.008-4.878 7.409-8.622 10.204-3.744 2.742-8.227 4.825-13.448 6.249-5.22 1.424-11.047 2.136-17.481 2.136a69.967 69.967 0 0 1-17.481-2.215c-5.696-1.529-10.864-3.849-15.504-6.961-4.641-3.164-8.359-7.198-11.154-12.102-2.742-4.957-4.113-10.837-4.113-17.64h27.844c0 3.375.448 6.223 1.345 8.543.896 2.32 2.214 4.192 3.955 5.616 1.74 1.371 3.876 2.373 6.407 3.006 2.531.58 5.431.87 8.701.87 3.533 0 6.381-.501 8.543-1.503 2.162-1.054 3.744-2.425 4.746-4.113 1.002-1.74 1.503-3.639 1.503-5.695zm517.48-8.385h27.69c-.37 8.016-2.53 15.082-6.49 21.199-3.95 6.117-9.44 10.89-16.45 14.318-6.96 3.375-15.19 5.062-24.68 5.062-7.7 0-14.58-1.292-20.65-3.876-6.01-2.584-11.12-6.302-15.34-11.153-4.17-4.852-7.36-10.732-9.57-17.64-2.17-6.908-3.25-14.686-3.25-23.335v-6.249c0-8.648 1.14-16.427 3.4-23.335 2.32-6.961 5.59-12.867 9.81-17.719 4.27-4.904 9.39-8.648 15.35-11.232 5.96-2.584 12.58-3.876 19.85-3.876 10.02 0 18.49 1.793 25.39 5.379 6.91 3.586 12.27 8.516 16.06 14.792 3.8 6.223 6.04 13.315 6.73 21.278h-27.69c-.1-4.324-.84-7.936-2.21-10.837-1.38-2.953-3.54-5.168-6.49-6.644-2.95-1.477-6.88-2.215-11.79-2.215-3.42 0-6.4.633-8.94 1.898-2.53 1.266-4.64 3.27-6.32 6.012-1.69 2.742-2.96 6.302-3.8 10.679-.79 4.324-1.19 9.545-1.19 15.662v6.407c0 6.117.37 11.338 1.11 15.662.74 4.324 1.93 7.858 3.56 10.6 1.64 2.742 3.74 4.772 6.33 6.091 2.64 1.265 5.85 1.898 9.65 1.898 4.22 0 7.78-.659 10.68-1.977 2.9-1.372 5.14-3.428 6.72-6.17 1.58-2.795 2.43-6.355 2.53-10.679zM747.439 340.549v21.357H688.35v-21.357h59.089zm-49.834-45.721V410H669.84V294.828h27.765zm68.502 0V410h-27.686V294.828h27.686z" fill="#F9C23C"/><path d="M644.154 174.412v18.51H592.58v-18.51h51.574zm-40.737-21.278h26.657v78.943c0 2.268.264 4.034.791 5.3.528 1.213 1.424 2.083 2.69 2.61 1.318.475 3.058.712 5.22.712 1.53 0 2.795-.026 3.797-.079a41.164 41.164 0 0 0 2.848-.395v19.063a43.83 43.83 0 0 1-7.119 1.661c-2.479.422-5.115.633-7.91.633-5.696 0-10.574-.896-14.634-2.689-4.008-1.793-7.067-4.615-9.176-8.464-2.109-3.85-3.164-8.86-3.164-15.03v-82.265zm92.786 108.448c-6.961 0-13.183-1.081-18.668-3.243-5.484-2.215-10.125-5.247-13.922-9.097a40.383 40.383 0 0 1-8.622-13.289c-1.951-5.01-2.927-10.309-2.927-15.899v-3.006c0-6.276.871-12.076 2.611-17.402 1.74-5.379 4.324-10.073 7.752-14.081 3.427-4.007 7.725-7.119 12.893-9.334 5.168-2.267 11.18-3.401 18.035-3.401 6.065 0 11.497.976 16.295 2.927 4.799 1.951 8.86 4.746 12.182 8.385 3.375 3.638 5.933 8.042 7.673 13.21 1.793 5.168 2.689 10.968 2.689 17.402v10.837h-69.925V208.9h43.901v-2.056c.053-2.848-.448-5.274-1.503-7.278-1.002-2.004-2.479-3.533-4.43-4.587-1.951-1.055-4.324-1.583-7.119-1.583-2.9 0-5.3.633-7.198 1.899-1.846 1.266-3.296 3.006-4.351 5.221-1.002 2.162-1.714 4.667-2.135 7.514-.422 2.848-.633 5.854-.633 9.018v3.006c0 3.164.422 6.038 1.265 8.622.897 2.584 2.163 4.799 3.797 6.644 1.688 1.793 3.692 3.191 6.012 4.193 2.373 1.002 5.063 1.503 8.068 1.503 3.639 0 7.225-.686 10.758-2.057 3.533-1.371 6.566-3.639 9.097-6.803l12.102 14.397c-1.74 2.478-4.218 4.878-7.435 7.198-3.164 2.32-6.961 4.219-11.391 5.695-4.429 1.424-9.386 2.136-14.871 2.136zm91.283-23.098v-35.279c0-2.426-.342-4.509-1.028-6.249-.686-1.74-1.767-3.085-3.243-4.034-1.477-1.002-3.454-1.503-5.933-1.503-2.004 0-3.718.343-5.141 1.028-1.424.686-2.505 1.714-3.244 3.085-.738 1.371-1.107 3.112-1.107 5.221h-26.657c0-3.955.87-7.62 2.61-10.995 1.793-3.428 4.324-6.407 7.594-8.939 3.322-2.531 7.277-4.482 11.865-5.853 4.641-1.424 9.809-2.136 15.504-2.136 6.803 0 12.867 1.134 18.193 3.401 5.379 2.268 9.624 5.669 12.736 10.205 3.111 4.482 4.667 10.125 4.667 16.927v35.042c0 5.59.316 9.835.949 12.736.633 2.847 1.529 5.352 2.689 7.514V260h-26.736c-1.266-2.637-2.215-5.854-2.848-9.65-.58-3.85-.87-7.805-.87-11.866zm3.243-30.77.159 14.238h-11.786c-2.479 0-4.588.343-6.329 1.028-1.687.686-3.058 1.635-4.113 2.848a11.267 11.267 0 0 0-2.215 3.955 16.905 16.905 0 0 0-.633 4.667c0 1.582.37 3.006 1.108 4.272a8.245 8.245 0 0 0 3.164 2.847c1.318.686 2.795 1.029 4.43 1.029 2.953 0 5.458-.554 7.514-1.661 2.11-1.161 3.718-2.558 4.826-4.193 1.107-1.635 1.661-3.164 1.661-4.588l5.853 10.916a72.417 72.417 0 0 1-3.639 6.407c-1.318 2.163-2.979 4.167-4.983 6.012-1.951 1.793-4.35 3.27-7.198 4.43-2.848 1.107-6.302 1.661-10.362 1.661-5.274 0-10.125-1.081-14.555-3.243-4.377-2.162-7.884-5.168-10.521-9.018-2.636-3.902-3.955-8.384-3.955-13.447 0-4.43.791-8.385 2.373-11.865 1.635-3.481 4.087-6.434 7.357-8.86 3.269-2.425 7.435-4.271 12.498-5.537 5.062-1.265 11.021-1.898 17.877-1.898h11.469zm65.259-15.188V260h-26.657v-85.588h24.996l1.661 18.114zm-3.243 21.753-6.091.159c0-6.012.712-11.549 2.136-16.612 1.424-5.062 3.533-9.466 6.328-13.21 2.795-3.744 6.223-6.644 10.283-8.701 4.114-2.057 8.86-3.085 14.239-3.085 3.744 0 7.145.58 10.204 1.74 3.058 1.108 5.695 2.874 7.91 5.3 2.215 2.373 3.902 5.484 5.062 9.334 1.213 3.797 1.82 8.358 1.82 13.685V260h-26.657v-53.71c0-3.639-.422-6.381-1.266-8.227-.791-1.845-1.951-3.084-3.481-3.717-1.529-.633-3.401-.95-5.616-.95-2.32 0-4.403.528-6.249 1.583-1.846 1.054-3.428 2.531-4.746 4.429-1.266 1.846-2.241 4.034-2.927 6.566-.632 2.531-.949 5.299-.949 8.305zm48.885 0-7.436.159c0-6.012.66-11.549 1.978-16.612 1.371-5.062 3.401-9.466 6.091-13.21 2.742-3.744 6.143-6.644 10.204-8.701 4.06-2.057 8.78-3.085 14.159-3.085 3.902 0 7.488.58 10.758 1.74 3.269 1.16 6.091 3.033 8.464 5.617s4.218 6.011 5.537 10.283c1.318 4.218 1.977 9.439 1.977 15.662V260h-26.736v-53.868c0-3.533-.422-6.196-1.266-7.989-.791-1.846-1.951-3.085-3.48-3.718-1.529-.686-3.349-1.029-5.458-1.029-2.531 0-4.72.528-6.566 1.583-1.845 1.054-3.401 2.531-4.667 4.429-1.212 1.846-2.109 4.034-2.689 6.566-.58 2.531-.87 5.299-.87 8.305zm258.11 24.205v-35.279c0-2.426-.34-4.509-1.03-6.249-.69-1.74-1.77-3.085-3.24-4.034-1.48-1.002-3.46-1.503-5.94-1.503-2 0-3.71.343-5.14 1.028-1.42.686-2.5 1.714-3.24 3.085-.74 1.371-1.11 3.112-1.11 5.221h-26.66c0-3.955.87-7.62 2.62-10.995 1.79-3.428 4.32-6.407 7.59-8.939 3.32-2.531 7.28-4.482 11.86-5.853 4.64-1.424 9.81-2.136 15.51-2.136 6.8 0 12.87 1.134 18.19 3.401 5.38 2.268 9.63 5.669 12.74 10.205 3.11 4.482 4.66 10.125 4.66 16.927v35.042c0 5.59.32 9.835.95 12.736.64 2.847 1.53 5.352 2.69 7.514V260h-26.73c-1.27-2.637-2.22-5.854-2.85-9.65-.58-3.85-.87-7.805-.87-11.866zm3.24-30.77.16 14.238h-11.79c-2.47 0-4.58.343-6.32 1.028-1.69.686-3.06 1.635-4.12 2.848-1 1.16-1.74 2.479-2.21 3.955a16.982 16.982 0 0 0-.64 4.667c0 1.582.37 3.006 1.11 4.272.79 1.213 1.85 2.162 3.17 2.847 1.31.686 2.79 1.029 4.43 1.029 2.95 0 5.45-.554 7.51-1.661 2.11-1.161 3.72-2.558 4.83-4.193 1.1-1.635 1.66-3.164 1.66-4.588l5.85 10.916a71.686 71.686 0 0 1-3.64 6.407c-1.32 2.163-2.98 4.167-4.98 6.012-1.95 1.793-4.35 3.27-7.2 4.43-2.85 1.107-6.3 1.661-10.36 1.661-5.28 0-10.13-1.081-14.56-3.243-4.37-2.162-7.88-5.168-10.52-9.018-2.63-3.902-3.95-8.384-3.95-13.447 0-4.43.79-8.385 2.37-11.865 1.64-3.481 4.09-6.434 7.36-8.86 3.27-2.425 7.43-4.271 12.49-5.537 5.07-1.265 11.03-1.898 17.88-1.898h11.47zm65.26-12.103V260h-26.66v-85.588h24.92l1.74 21.199zm25.31-21.832-.47 24.759c-1.06-.105-2.48-.237-4.27-.395-1.8-.159-3.3-.238-4.51-.238-3.11 0-5.8.369-8.07 1.108-2.22.685-4.06 1.74-5.54 3.164-1.42 1.371-2.48 3.111-3.16 5.22-.63 2.11-.92 4.562-.87 7.357l-4.83-3.164c0-5.748.56-10.969 1.66-15.662 1.16-4.746 2.8-8.833 4.91-12.261 2.11-3.48 4.67-6.144 7.67-7.989 3.01-1.899 6.38-2.848 10.13-2.848 1.31 0 2.61.079 3.87.237 1.32.159 2.48.396 3.48.712zm58.22.633v18.51h-51.57v-18.51h51.57zm-40.74-21.278h26.66v78.943c0 2.268.27 4.034.79 5.3.53 1.213 1.43 2.083 2.69 2.61 1.32.475 3.06.712 5.22.712 1.53 0 2.8-.026 3.8-.079 1-.105 1.95-.237 2.85-.395v19.063a43.841 43.841 0 0 1-7.12 1.661c-2.48.422-5.12.633-7.91.633-5.7 0-10.58-.896-14.64-2.689-4-1.793-7.06-4.615-9.17-8.464-2.11-3.85-3.17-8.86-3.17-15.03v-82.265zM819.07 411.582c-6.961 0-13.184-1.081-18.668-3.243-5.484-2.215-10.125-5.247-13.922-9.097a40.383 40.383 0 0 1-8.622-13.289c-1.951-5.01-2.927-10.309-2.927-15.899v-3.006c0-6.276.87-12.076 2.611-17.402 1.74-5.379 4.324-10.073 7.752-14.081 3.427-4.007 7.725-7.119 12.893-9.334 5.168-2.267 11.18-3.401 18.035-3.401 6.065 0 11.496.976 16.295 2.927 4.799 1.951 8.86 4.746 12.182 8.385 3.375 3.638 5.933 8.042 7.673 13.21 1.793 5.168 2.689 10.968 2.689 17.402v10.837h-69.926V358.9h43.902v-2.056c.053-2.848-.448-5.274-1.503-7.278-1.002-2.004-2.479-3.533-4.43-4.587-1.951-1.055-4.324-1.583-7.119-1.583-2.9 0-5.3.633-7.198 1.899-1.846 1.266-3.296 3.006-4.351 5.221-1.002 2.162-1.714 4.667-2.136 7.514-.421 2.848-.632 5.854-.632 9.018v3.006c0 3.164.422 6.038 1.265 8.622.897 2.584 2.162 4.799 3.797 6.644 1.688 1.793 3.692 3.191 6.012 4.193 2.373 1.002 5.062 1.503 8.068 1.503 3.639 0 7.225-.686 10.758-2.057 3.533-1.371 6.565-3.639 9.097-6.803l12.102 14.397c-1.74 2.478-4.218 4.878-7.435 7.198-3.164 2.32-6.961 4.219-11.391 5.695-4.43 1.424-9.387 2.136-14.871 2.136zM894.058 288.5V410h-26.736V288.5h26.736zm43.348 52.365v102.041h-26.657V324.412h24.838l1.819 16.453zm52.523 25.313v1.661c0 6.223-.712 11.997-2.135 17.323-1.424 5.326-3.534 9.967-6.328 13.922-2.795 3.955-6.276 7.04-10.442 9.255-4.113 2.162-8.886 3.243-14.317 3.243-5.116 0-9.519-1.134-13.21-3.401-3.692-2.268-6.777-5.406-9.255-9.413-2.479-4.008-4.483-8.596-6.012-13.764-1.529-5.168-2.742-10.626-3.639-16.374v-2.136c.897-6.17 2.11-11.891 3.639-17.165 1.529-5.326 3.533-9.967 6.012-13.922 2.478-3.955 5.537-7.04 9.176-9.255 3.691-2.214 8.094-3.322 13.21-3.322 5.431 0 10.204 1.028 14.317 3.085 4.166 2.057 7.646 5.01 10.441 8.859 2.848 3.797 4.984 8.359 6.408 13.685 1.423 5.326 2.135 11.232 2.135 17.719zm-26.657 1.661v-1.661c0-3.323-.237-6.355-.712-9.097-.474-2.795-1.239-5.221-2.294-7.277-1.002-2.057-2.346-3.639-4.034-4.746-1.687-1.108-3.77-1.662-6.249-1.662-2.848 0-5.247.449-7.198 1.345-1.899.844-3.428 2.162-4.588 3.955-1.107 1.741-1.898 3.929-2.373 6.566-.422 2.584-.607 5.616-.554 9.096v6.487c-.105 4.008.29 7.541 1.187 10.599.896 3.006 2.452 5.353 4.667 7.04 2.215 1.688 5.22 2.532 9.017 2.532 2.532 0 4.641-.58 6.328-1.741 1.688-1.213 3.033-2.874 4.035-4.983 1.002-2.162 1.713-4.641 2.135-7.436.422-2.794.633-5.8.633-9.017zm79.968 43.743c-6.96 0-13.18-1.081-18.66-3.243-5.49-2.215-10.13-5.247-13.93-9.097-3.74-3.849-6.61-8.279-8.62-13.289-1.95-5.01-2.925-10.309-2.925-15.899v-3.006c0-6.276.87-12.076 2.615-17.402 1.74-5.379 4.32-10.073 7.75-14.081 3.43-4.007 7.72-7.119 12.89-9.334 5.17-2.267 11.18-3.401 18.04-3.401 6.06 0 11.49.976 16.29 2.927 4.8 1.951 8.86 4.746 12.18 8.385 3.38 3.638 5.94 8.042 7.68 13.21 1.79 5.168 2.69 10.968 2.69 17.402v10.837h-69.93V358.9h43.9v-2.056c.05-2.848-.45-5.274-1.5-7.278-1-2.004-2.48-3.533-4.43-4.587-1.95-1.055-4.33-1.583-7.12-1.583-2.9 0-5.3.633-7.2 1.899-1.85 1.266-3.3 3.006-4.35 5.221-1 2.162-1.71 4.667-2.14 7.514-.42 2.848-.63 5.854-.63 9.018v3.006c0 3.164.42 6.038 1.27 8.622.89 2.584 2.16 4.799 3.79 6.644 1.69 1.793 3.7 3.191 6.02 4.193 2.37 1.002 5.06 1.503 8.06 1.503 3.64 0 7.23-.686 10.76-2.057 3.54-1.371 6.57-3.639 9.1-6.803l12.1 14.397c-1.74 2.478-4.22 4.878-7.43 7.198-3.17 2.32-6.97 4.219-11.4 5.695-4.42 1.424-9.38 2.136-14.87 2.136zm73.73-65.971V410h-26.66v-85.588h24.92l1.74 21.199zm25.31-21.832-.48 24.759c-1.05-.105-2.47-.237-4.27-.395-1.79-.159-3.29-.238-4.51-.238-3.11 0-5.8.369-8.06 1.108-2.22.685-4.06 1.74-5.54 3.164-1.43 1.371-2.48 3.111-3.17 5.22-.63 2.11-.92 4.562-.87 7.357l-4.82-3.164c0-5.748.55-10.969 1.66-15.662 1.16-4.746 2.8-8.833 4.9-12.261 2.11-3.48 4.67-6.144 7.68-7.989 3-1.899 6.38-2.848 10.12-2.848 1.32 0 2.61.079 3.88.237 1.32.159 2.48.396 3.48.712z" fill="#BEBEBE"/></svg>