<svg width="600" height="600" fill="none" xmlns="http://www.w3.org/2000/svg"><g clip-path="url(#a)"><rect width="600" height="600" rx="100" fill="#F9C23C"/><rect x="44" y="45" width="512" height="512" rx="75" fill="#000"/><path fill="#000" d="M272 546h56v56h-56zM272 0h56v56h-56zM544 272h56v56h-56zM0 272h56v56H0z"/><path d="M257 374c46.944 0 85-38.056 85-85s-38.056-85-85-85-85 38.056-85 85 38.056 85 85 85z" fill="#F9C23C"/><circle opacity=".53" cx="257.283" cy="289.283" r="67.15" fill="#D3883E"/><mask id="b" style="mask-type:alpha" maskUnits="userSpaceOnUse" x="190" y="222" width="135" height="135"><path d="M324.433 289.283c0 37.086-30.064 67.15-67.15 67.15-37.086 0-67.15-30.064-67.15-67.15 0-37.086 30.064-67.15 67.15-67.15 37.086 0 67.15 30.064 67.15 67.15z" fill="#fff"/></mask><g mask="url(#b)"><path d="m254.351 270.813.007.367-18.2 26.422a20.418 20.418 0 0 0-8.711 1.538 18.86 18.86 0 0 0-3.482 1.858l-39.968-16.462s-.925 15.206 2.929 26.537l28.255 11.651a20.527 20.527 0 0 0 12.184 14.565 20.653 20.653 0 0 0 15.785.022 20.651 20.651 0 0 0 12.775-19.623l26.016-18.594.64.011c15.584 0 28.252-12.697 28.252-28.292 0-15.596-12.644-28.246-28.252-28.279-15.578 0-28.253 12.683-28.253 28.279h.023zm-4.37 53.542c-3.379 8.13-12.705 11.956-20.81 8.58a15.894 15.894 0 0 1-8.191-7.809l9.198 3.809a11.72 11.72 0 0 0 12.775-2.519 11.725 11.725 0 0 0 2.564-12.768 11.736 11.736 0 0 0-6.33-6.362l-9.53-3.937a15.826 15.826 0 0 1 11.738.179c3.952 1.633 6.973 4.708 8.591 8.641a15.844 15.844 0 0 1-.023 12.186m32.643-34.692a18.883 18.883 0 0 1-13.307-5.537 18.859 18.859 0 0 1-5.516-13.309 18.856 18.856 0 0 1 5.518-13.305 18.874 18.874 0 0 1 13.305-5.535 18.877 18.877 0 0 1 13.308 5.533 18.853 18.853 0 0 1 5.519 13.307 18.856 18.856 0 0 1-5.517 13.311 18.884 18.884 0 0 1-13.31 5.535zm-14.104-18.876a14.142 14.142 0 0 1 4.134-10.002 14.156 14.156 0 0 1 9.998-4.156c7.798 0 14.141 6.342 14.141 14.158a14.14 14.14 0 0 1-4.138 10.003 14.157 14.157 0 0 1-10.003 4.15 14.155 14.155 0 0 1-9.998-4.153 14.135 14.135 0 0 1-4.134-10z" fill="#FACD61"/></g><path d="m155.018 414.442 259.329 20.447 17.141-65.777h8.811c22.552 0 41.018 22.04 41.018 47.445v1.888c0 26.434-19.793 49.333-43.325 49.333H86.444c-8.987 0-16.444 6.282-16.444 15.724 0 9.441 7.354 17.165 16.341 17.165h352.324c41.509 0 75.335-36.906 75.335-82.222v-1.888c0-44.286-33.011-80.334-73.701-80.334h-.241l.05-.191c3.638-.801 6.47-4.022 6.47-7.716v-.631c0-2.365-1.079-4.458-2.76-5.896l43.378-166.455H122.622C93.68 155.334 70 178.889 70 208.824l8.551 139.696c2.467 41.386 41.44 63.142 76.467 65.922zm239.312-90.794h-32.199v-73.517h52.519l-20.32 73.517zm20.32-73.517h-52.519v-61.793l35.936.039c13.813 0 24.721 12.759 21.432 26.009l-4.849 35.745zm-52.519-61.812v61.812h-96.732v-61.898l96.732.086zm-96.732-.105v61.917h-83.19v-62.007l83.19.09zm-83.19-.11v62.027h-77.488l-1.832-42.288c0-10.96 8.88-19.794 19.898-19.794l59.422.055zm-77.488 62.027h77.488v73.517h-72.42l-5.068-73.517zm5.068 73.517h72.42v60.418l-24.396-2.175c-22.035-1.801-45.057-14.396-46.373-35.335l-1.651-22.908zm72.42 60.418v-60.418h83.19v67.67l-83.19-7.252zm83.19 7.252v-67.67h96.732v72.104c0 .422-.063.838 0 1.244l-96.732-5.678zm96.732 5.678v-73.348h32.199l-16.106 57.751c-1.549 6.367-10.566 12.95-16.093 15.597zm-96.732-146.865h96.732v73.517h-96.732v-73.517zm-83.19 0h83.19v73.517h-83.19v-73.517z" fill="#9B9B9B"/><path d="M412.102 450.852c-9.235-2.166-14.984-11.329-12.719-20.16l80.322-312.057c2.265-8.831 11.849-14.329 21.082-12.163 9.235 2.166 14.984 11.33 12.72 20.16l-80.323 312.057c-2.264 8.997-11.674 14.328-21.082 12.163z" fill="#BEBEBE"/><path d="M481.111 138.889H514c9.044 0 16.444-7.4 16.444-16.445 0-9.044-7.4-16.444-16.444-16.444h-32.889c-9.044 0-16.444 7.4-16.444 16.444 0 9.045 7.4 16.445 16.444 16.445zM127.557 550c13.623 0 24.667-11.044 24.667-24.667 0-13.622-11.044-24.666-24.667-24.666-13.623 0-24.667 11.044-24.667 24.666 0 13.623 11.044 24.667 24.667 24.667zM423.556 550c13.623 0 24.667-11.044 24.667-24.667 0-13.622-11.044-24.666-24.667-24.666-13.623 0-24.667 11.044-24.667 24.666 0 13.623 11.044 24.667 24.667 24.667z" fill="#0084CE"/></g><defs><clipPath id="a"><path fill="#fff" d="M0 0h600v600H0z"/></clipPath></defs></svg>